<svg width="477" height="395" viewBox="0 0 477 395" fill="none" xmlns="http://www.w3.org/2000/svg">
<path d="M90.556 2.10437C51.756 10.371 19.4894 38.6377 7.22269 75.3044C-0.777308 99.571 0.289358 128.238 10.2894 150.771C20.2894 173.304 40.556 194.504 62.8227 205.704C75.6227 212.104 91.756 215.838 112.156 217.171C126.423 218.104 133.356 219.171 140.423 221.571C169.089 231.571 187.623 255.704 187.623 283.171C187.756 301.571 181.356 317.704 168.823 330.771C153.756 346.638 137.489 353.571 115.223 353.704C98.6893 353.838 86.4227 350.504 74.156 342.504C54.4227 329.838 43.2227 311.304 41.0894 287.704C39.8894 276.104 36.956 271.171 28.956 267.571C18.8227 263.038 9.62269 265.704 2.68936 275.038C0.289358 278.104 -0.110642 280.638 0.0226912 290.238C0.156024 316.638 13.0894 343.838 34.956 363.971C50.4227 378.238 70.556 388.504 91.0893 392.638C108.823 396.104 133.356 394.771 149.889 389.304C187.489 376.904 214.823 349.838 224.956 314.504C226.823 308.238 228.689 299.304 229.223 294.504C229.756 289.704 231.356 280.904 232.823 274.904C234.956 266.371 236.156 263.704 238.289 263.038C243.089 261.571 252.823 251.304 256.023 244.504C260.689 234.638 260.423 221.438 255.489 211.438L251.756 203.971L255.489 194.371C260.423 182.104 266.023 174.371 272.823 170.504C284.156 164.104 291.889 170.504 312.156 203.171C341.089 249.438 351.756 266.238 357.356 273.971C366.156 286.504 376.023 295.438 387.089 300.904C396.823 305.704 397.356 305.838 412.423 305.838C427.356 305.838 428.156 305.704 437.089 301.304C450.023 294.771 460.556 283.704 467.089 270.104C476.289 250.771 476.556 248.504 476.556 171.571C476.556 93.3044 476.956 96.5044 465.489 90.6377C460.423 88.1044 458.023 87.7044 453.089 88.5044C445.623 89.571 438.423 95.571 436.556 102.238C435.756 105.304 435.223 132.104 435.223 172.104C435.223 232.104 435.089 237.571 432.689 245.038C427.356 262.238 415.756 270.371 404.823 264.638C396.956 260.504 396.689 260.104 350.689 186.638C322.823 142.238 305.623 127.838 280.556 127.838C251.623 127.838 228.956 147.038 215.756 182.771C212.289 192.104 211.356 193.304 206.956 195.038C204.289 196.238 199.889 198.904 197.223 201.304C193.089 205.038 192.289 205.304 190.823 203.571C189.889 202.371 186.023 199.304 182.156 196.771C164.689 184.904 145.356 179.038 118.956 177.171C97.4894 175.704 92.4227 174.638 79.8894 168.104C63.2227 159.438 50.0227 142.904 45.2227 124.504C36.556 91.3044 57.2227 55.7044 91.8894 43.971C131.756 30.6377 176.156 53.971 186.689 93.8377C187.756 97.4377 188.556 103.171 188.556 106.504C188.689 120.238 196.823 129.171 209.223 129.171C217.089 129.171 223.356 125.838 227.356 119.571C229.756 115.704 230.023 113.704 229.489 102.504C228.689 86.771 226.156 77.171 218.556 61.8377C211.889 47.971 201.623 34.9044 189.623 25.171C178.156 15.8377 157.489 5.8377 142.556 2.50436C128.023 -0.695636 104.289 -0.828963 90.556 2.10437ZM233.023 205.604C233.956 206.671 236.023 209.705 236.023 207.104C236.023 210.838 243.489 212.838 245.756 217.104C248.556 222.438 249.056 231.404 246.523 236.604C245.323 239.138 238.79 241.871 243.023 243.104C242.356 243.104 239.523 243.304 239.523 244.504C239.523 245.971 232.157 244.971 233.023 249.604C219.156 257.338 215.656 253.204 207.523 241.604C204.19 236.671 202.39 238.404 202.523 231.604C202.656 222.804 201.923 218.304 207.523 213.104C214.19 206.838 229.423 201.204 233.023 205.604Z" fill="url(#paint0_linear_7_69)"/>
<g filter="url(#filter0_d_7_69)">
<circle cx="224.023" cy="228.604" r="25.5" fill="#24E5F9"/>
</g>
<defs>
<filter id="filter0_d_7_69" x="78.5229" y="87.1045" width="291" height="291" filterUnits="userSpaceOnUse" color-interpolation-filters="sRGB">
<feFlood flood-opacity="0" result="BackgroundImageFix"/>
<feColorMatrix in="SourceAlpha" type="matrix" values="0 0 0 0 0 0 0 0 0 0 0 0 0 0 0 0 0 0 127 0" result="hardAlpha"/>
<feMorphology radius="19" operator="dilate" in="SourceAlpha" result="effect1_dropShadow_7_69"/>
<feOffset dy="4"/>
<feGaussianBlur stdDeviation="50.5"/>
<feComposite in2="hardAlpha" operator="out"/>
<feColorMatrix type="matrix" values="0 0 0 0 0.129412 0 0 0 0 0.458824 0 0 0 0 0.490196 0 0 0 1 0"/>
<feBlend mode="normal" in2="BackgroundImageFix" result="effect1_dropShadow_7_69"/>
<feBlend mode="normal" in="SourceGraphic" in2="effect1_dropShadow_7_69" result="shape"/>
</filter>
<linearGradient id="paint0_linear_7_69" x1="247.023" y1="402.104" x2="238.246" y2="-0.0664108" gradientUnits="userSpaceOnUse">
<stop stop-color="#6366F1"/>
<stop offset="1" stop-color="#945FF9"/>
</linearGradient>
</defs>
</svg>
